<svg xmlns="http://www.w3.org/2000/svg" width="165.839" height="43.802" viewBox="0 0 165.839 43.802">
  <g id="barclays-ar21" transform="translate(-4.104 -14.897)">
    <path id="Path_104436" data-name="Path 104436" d="M42.383,41.832H36.06c.818-.744,1.043-3.422,1.34-8.258l.072-1.115.3-6.323c0-1.264-.149-2.083-.521-2.381h7.068c1.709,0,5.059.072,5.059,3.571,0,2.381-2.172,3.795-4.167,4.316,2.827.223,4.924,1.637,4.924,4.538.072,3.124-2.9,5.654-7.737,5.654m-.223-8.777H40.907l-.223,2.679-.149,3.348c0,.149.521.521,1.709.521,2.53,0,4.167-1.264,4.167-3.348.072-2.306-1.935-3.186-4.241-3.186m.521-7.14A7.85,7.85,0,0,0,41.427,26a31.216,31.216,0,0,0-.372,3.867l-.072,1.043h.446c2.306,0,4.388-.818,4.388-2.9.072-1.19-.967-2.083-3.124-2.083M65,42c-1.564,0-1.709-.072-2.9-4.316l-.446-1.564a10.508,10.508,0,0,1-4.167.521H55.311l-.372.818a11.327,11.327,0,0,0-1.264,3.571,3.65,3.65,0,0,0,.074.818H49.432c1.19-1.19,2.827-4.091,4.985-8.69l1.264-2.679,2.381-5.58a2.6,2.6,0,0,0-.223-1.043h3.942L63.717,31l.744,2.827c1.34,4.837,2.23,7.14,3.273,8.035l-2.752.149M59.328,28.021l-2.976,6.323h4.762l-1.786-6.323M82.1,42.6c-1.34,0-1.637-.223-2.083-.818l-5.133-7c-.372-.579-.744-.967-1.34-.967h-.072L73.4,35.235,73.173,39.7c0,1.19.149,1.935.521,2.23H68.77c.744-.579.967-2.679,1.414-8.258l.072-1.115.3-6.323c0-1.264-.149-2.083-.521-2.381h6.622c2.23,0,5.133.372,5.133,3.867,0,2.9-1.935,4.464-4.316,5.208a12.819,12.819,0,0,1,.892,1.043l3.645,4.837c2.306,3.05,2.455,3.186,3.273,3.571a23.839,23.839,0,0,1-3.186.223m-6.546-16.59a9.248,9.248,0,0,0-1.414.072c-.149.744-.223,2.083-.372,4.241l-.072,1.264a3.073,3.073,0,0,0,.818.072c2.23,0,3.795-1.414,3.795-3.422-.072-1.414-1.043-2.23-2.752-2.23M91.708,42.2c-4.687,0-7.365-3.867-7.365-8.11,0-5.938,3.273-10.639,9.449-10.639,1.935,0,2.827.372,4.464.372l-.446,4.613a4.8,4.8,0,0,0-4.316-2.679c-3.867,0-5.431,4.167-5.431,7.737,0,3.867,2.23,6.025,5.059,6.025,1.564,0,2.976-.372,5.282-2.009a6.549,6.549,0,0,1-6.7,4.687m31.841-.223c-1.564,0-1.637-.072-2.9-4.316L120.2,36.1a10.508,10.508,0,0,1-4.167.521H113.8l-.372.818a10.169,10.169,0,0,0-1.264,3.571c0,.223.072.521.072.818h-12.8c.744-.818.967-3.5,1.34-8.258l.072-1.115.3-6.323a4.274,4.274,0,0,0-.446-2.381h4.985c-.744.521-.967,3.422-1.264,8.258l-.072,1.115-.372,5.356c0,.818.3,1.043,1.19,1.043,3.05,0,3.719-.072,5.133-.967.892-1.564,1.786-3.5,2.752-5.5l1.264-2.679,2.381-5.58a2.6,2.6,0,0,0-.223-1.043h3.928l1.935,7.14.744,2.827c1.34,4.837,2.172,7.14,3.348,8.035a26.84,26.84,0,0,1-2.9.223m-5.654-13.986-2.9,6.323h4.687l-1.786-6.323m16.962,4.091-1.264,2.381a25.127,25.127,0,0,0-.372,5.059,4.072,4.072,0,0,0,.521,2.306H128.8c.892-.818,1.19-5.8,1.19-7.44a43.836,43.836,0,0,0-2.9-7.14c-.892-1.637-1.86-3.186-2.53-3.5l3.186-.149c1.19,0,1.564.149,2.306,1.786l2.53,6.1,3.186-5.133a3.893,3.893,0,0,0,.521-1.564,1.962,1.962,0,0,0-.223-1.043h4.837c-1.043.223-5.208,6.845-6.1,8.332m16.366-4.091a4.88,4.88,0,0,0-4.167-2.381c-1.564,0-2.9.579-2.9,2.23,0,1.414,1.709,2.306,3.5,3.5,1.935,1.19,3.942,2.679,3.942,5.282,0,3.348-3.273,5.5-7.14,5.5a14.777,14.777,0,0,1-5.059-.967l.3-4.464a5.4,5.4,0,0,0,4.985,3.186c1.86,0,3.348-.892,3.348-2.53,0-1.34-1.115-2.23-2.53-3.05-2.976-1.786-4.837-3.186-4.837-5.8,0-3.867,3.186-5.133,6.622-5.133,1.935,0,3.186.372,4.388.372Z" transform="translate(18.326 3.792)" fill="#fff"/>
    <path id="Path_104437" data-name="Path 104437" d="M44.448,24.275A6.154,6.154,0,0,0,42.2,21.5a8.4,8.4,0,0,0-1.851-1.057,6.188,6.188,0,0,0-1.719-.265h-.145A3.564,3.564,0,0,0,35.444,21.5a2.189,2.189,0,0,0-.4,1.851A1.64,1.64,0,0,0,36.1,24.54a.579.579,0,0,0,.4.132,1.138,1.138,0,0,1-.145.4,3.669,3.669,0,0,1-3.041,1.057H33.17a4.623,4.623,0,0,1-3.041-1.587c-.662-.794-1.057-2.248-1.057-4.5a9.312,9.312,0,0,0-.4-2.9,2.718,2.718,0,0,0-1.057-1.322,6.078,6.078,0,0,0-1.322-.662L24.047,14.9c-.794,0-1.322.145-1.587.529h-.794c-.4,0-.927.145-1.322.145a4.193,4.193,0,0,0-1.851.927,3.013,3.013,0,0,0-.794,1.19,6.905,6.905,0,0,0,.145.927l.145.145a2.125,2.125,0,0,1,1.454-.4c.927,0,2.248.4,2.513,1.057a4.224,4.224,0,0,1,.4,2.776c-.4,2.513-1.322,3.7-3.306,3.968a3.017,3.017,0,0,1-1.057.145c-1.454,0-2.513-.4-3.041-1.322v-.265a.374.374,0,0,0,.265-.145,1.874,1.874,0,0,0,1.057-1.19,2.247,2.247,0,0,0-.4-1.851,4.3,4.3,0,0,0-3.041-1.322,7.4,7.4,0,0,0-1.851.265,6.731,6.731,0,0,0-4.1,3.835,14.31,14.31,0,0,0-1.454,5.554,35.273,35.273,0,0,0,0,5.421A17.406,17.406,0,0,0,6.75,41.227a27.135,27.135,0,0,0,2.375,4.765,7.315,7.315,0,0,0,.662,1.057l.145-.145a1.78,1.78,0,0,0,.4-.529,12.171,12.171,0,0,0,1.719-2.115,10,10,0,0,0,.927-1.719l.145-.265.265.145a1.5,1.5,0,0,1,.4,1.057,5.811,5.811,0,0,1-.4,1.587,19.306,19.306,0,0,1-1.322,3.041c.145.145.145.4,0,.4a1.962,1.962,0,0,0-.4,1.19h.145a1.936,1.936,0,0,0,1.057-.529,13.179,13.179,0,0,0,2.776-3.041,23.5,23.5,0,0,0,2.513-4.364L18.3,41.5l.265.145c.145.145.265.145.4.265a2.372,2.372,0,0,1,.145,1.057,19.787,19.787,0,0,1-1.19,3.57,29.874,29.874,0,0,1-3.306,5.289.608.608,0,0,1-.4.4,1.78,1.78,0,0,0,.529.4l.4.4a26.808,26.808,0,0,0,4.5,3.041A29.746,29.746,0,0,0,25.454,58.7a23.547,23.547,0,0,0,5.818-2.645,26.808,26.808,0,0,0,4.5-3.041l.4-.4c.265-.145.4-.4.529-.4a.93.93,0,0,0,.145-.529l-.145-.145a25.806,25.806,0,0,1-3.306-5.289,18.921,18.921,0,0,1-1.19-3.57,1.3,1.3,0,0,1,.145-1.057l.265-.265a.634.634,0,0,1,.4-.145l.145.265a34.319,34.319,0,0,0,2.513,4.364,13.179,13.179,0,0,0,2.776,3.041,1.58,1.58,0,0,0,1.057.529h.145c.145-.145,0-.4-.4-1.057a.472.472,0,0,1-.145-.4,19.306,19.306,0,0,1-1.322-3.041,6.466,6.466,0,0,1-.4-1.587,1.556,1.556,0,0,1,.4-1.057l.265-.145.145.265a11.58,11.58,0,0,0,1.057,1.851c.264.4,1.322,1.587,1.587,1.984.265.265.4.4.4.529l.145.145a4.016,4.016,0,0,0,.529-.927l.145-.145a31.859,31.859,0,0,0,2.248-4.761,19.934,19.934,0,0,0,1.322-5.938,23.851,23.851,0,0,0,0-5.421,11.538,11.538,0,0,0-1.057-5.421Z" transform="translate(-1.22 0)" fill="#fff"/>
  </g>
</svg>
