<svg xmlns="http://www.w3.org/2000/svg" width="169.157" height="21.647" viewBox="0 0 169.157 21.647">
  <path id="equinox-logo-vector" d="M84.434,284.794H88.1v9.98a7.685,7.685,0,0,1-15.365,0v-9.98H76.4v9.98a4.02,4.02,0,0,0,8.035,0Zm17.874,17.451h3.665V284.794h-3.665Zm-77.643-6.992H32.08v-3.44H24.665v-3.552h7.668v-3.468H21v17.451H32.559v-3.468H24.665Zm31.407,6.654c.818.987,3.3,1.551,5.526,1.184l-3.017,3.073c-3.524,0-6.992-2.791-7.809-4a8.945,8.945,0,1,1,5.3-.254Zm2.227-8.4a5.3,5.3,0,1,0-5.3,5.3h0a5.349,5.349,0,0,0,5.3-5.3Zm125.148-.367,6.174-8.4h-4.539l-3.891,5.3-3.891-5.3h-4.539l6.2,8.4-6.654,9.106h4.539l4.4-5.977,4.4,5.977h4.511l-6.71-9.106Zm-24.584-3.017a5.291,5.291,0,0,1-5.977,8.317l-2.2,3.017a8.966,8.966,0,0,0,10.375-14.378l-2.2,3.045Zm-27.319,5.526-8.373-10.883h-3.524v17.451h3.665V290.968l8.655,11.249h3.214V284.794h-3.665v10.854Zm17.959-2.143a5.349,5.349,0,0,1,5.3-5.3,5.244,5.244,0,0,1,1.973.395l2.2-3.017A8.967,8.967,0,0,0,148.6,299.99l2.143-3.017a5.362,5.362,0,0,1-1.269-3.468Z" transform="translate(-21 -284.517)" fill="#fff"/>
</svg>
