<svg xmlns="http://www.w3.org/2000/svg" width="125.227" height="68.02" viewBox="0 0 125.227 68.02">
  <g id="Group_174643" data-name="Group 174643" transform="translate(78.908 -210.622)">
    <path id="Path_104451" data-name="Path 104451" d="M-33.672,210.622c0,.08-.009.16-.009.24q0,4.282,0,8.564v.241c.415-.4.793-.8,1.212-1.149a9.154,9.154,0,0,1,12.134.262,9.587,9.587,0,0,1,3.175,6.411,9.6,9.6,0,0,1-3.1,8.187,9.254,9.254,0,0,1-13.163-.571c-.068-.076-.137-.151-.244-.268v3.323h-2.313v-25.24Zm7.2,22.939a6.848,6.848,0,0,0,5.439-2.723,7.642,7.642,0,0,0-.194-9.694,6.912,6.912,0,0,0-9.959-.706A7.436,7.436,0,0,0-33.632,227,7.259,7.259,0,0,0-26.469,233.561Z" fill="#fff"/>
    <path id="Path_104452" data-name="Path 104452" d="M-10.565,210.622c0,.1-.005.192-.005.289v24.958h-2.3V210.887c0-.089,0-.177-.005-.265Z" fill="#fff"/>
    <path id="Path_104453" data-name="Path 104453" d="M26.31,210.622a4.4,4.4,0,0,1,.492.227,1.45,1.45,0,0,1,.611,1.751,1.467,1.467,0,0,1-2.837-.343,1.477,1.477,0,0,1,1.051-1.58c.052-.016.1-.037.154-.055Z" fill="#fff"/>
    <path id="Path_104454" data-name="Path 104454" d="M-2.478,210.622l.2.068a1.466,1.466,0,0,1,1,1.674,1.461,1.461,0,0,1-1.447,1.2,1.465,1.465,0,0,1-1.442-1.231,1.472,1.472,0,0,1,1.025-1.644c.059-.018.117-.041.176-.062Z" fill="#fff"/>
    <path id="Path_104455" data-name="Path 104455" d="M-76.62,232.5v10.4h-2.288V216.361h2.27V219.6l.079.051a2.108,2.108,0,0,1,.145-.2,8.986,8.986,0,0,1,5.791-3.023,9.074,9.074,0,0,1,8.058,3.052,9.166,9.166,0,0,1,2.4,5.073,9.714,9.714,0,0,1-3.137,8.893,8.825,8.825,0,0,1-6.7,2.389,9.082,9.082,0,0,1-6.467-3.178C-76.508,232.616-76.545,232.578-76.62,232.5Zm6.735,1.059a7.2,7.2,0,0,0,3.907-.968,7.649,7.649,0,0,0,1.8-11.484,6.946,6.946,0,0,0-10.066-.565,7.644,7.644,0,0,0-1.514,9.11A6.841,6.841,0,0,0-69.885,233.556Z" fill="#fff"/>
    <path id="Path_104456" data-name="Path 104456" d="M-35.94,252.13h2.226v3.228c.211-.179.435-.345.632-.539a9.108,9.108,0,0,1,5.894-2.667,9.441,9.441,0,0,1,9.955,8.324,9.589,9.589,0,0,1-3.953,9.353,9.055,9.055,0,0,1-10.663.051,20.622,20.622,0,0,1-1.661-1.488c-.051-.046-.1-.1-.2-.2v10.455H-35.94Zm16.563,9.047a7.391,7.391,0,0,0-1.427-3.811,7,7,0,0,0-10.053-1.489,7.691,7.691,0,0,0-1.073,10.911,6.959,6.959,0,0,0,7.747,2.125C-21.336,267.879-19.387,265.013-19.377,261.177Z" fill="#fff"/>
    <path id="Path_104457" data-name="Path 104457" d="M-44.305,255.4v-3.257h2.235v19.436h-2.224v-3.387c-.217.23-.378.411-.55.581a8.944,8.944,0,0,1-8.544,2.593,9.127,9.127,0,0,1-6.328-4.866,9.631,9.631,0,0,1-1.134-5.409,9.515,9.515,0,0,1,6.859-8.59,9.023,9.023,0,0,1,9.472,2.748c.053.056.1.115.158.172Zm-7.425,13.938a7.076,7.076,0,0,0,5.131-1.985,7.654,7.654,0,0,0,1.564-8.8A6.893,6.893,0,0,0-51.4,254.39a6.686,6.686,0,0,0-5.6,2.732,7.613,7.613,0,0,0-.378,8.906A6.853,6.853,0,0,0-51.73,269.334Z" fill="#fff"/>
    <path id="Path_104458" data-name="Path 104458" d="M9.807,266.052l1.828,1.188c-.065.1-.12.2-.181.287a9.239,9.239,0,0,1-14.24,1.322,9.351,9.351,0,0,1-2.841-7.288,9.452,9.452,0,0,1,5.791-8.647,9.15,9.15,0,0,1,10.907,2.792,10.37,10.37,0,0,1,2.074,5.076,3.442,3.442,0,0,1,.029.6,1.015,1.015,0,0,1-.973,1c-.127.011-.256.009-.384.009h-15.2a7.392,7.392,0,0,0,4.508,6.471A7.072,7.072,0,0,0,9.807,266.052Zm.954-5.844a7.132,7.132,0,0,0-7.256-5.841,7.2,7.2,0,0,0-6.752,5.841Z" fill="#fff"/>
    <path id="Path_104459" data-name="Path 104459" d="M20.153,254.54l.2-.19a7.786,7.786,0,0,1,6-2.2,7.911,7.911,0,0,1,7.275,6.4,8.76,8.76,0,0,1,.144,1.625c.012,3.681.006,7.362.006,11.043,0,.379,0,.379-.376.38H31.571v-.355q0-5.582,0-11.163a5.711,5.711,0,0,0-10.785-2.654,5.9,5.9,0,0,0-.695,2.793q0,5.5,0,11v.368H17.923c-.005-.1-.014-.2-.014-.291q0-9.443-.006-18.886c0-.232.062-.3.3-.294.553.016,1.107.012,1.66,0,.18,0,.235.05.233.231-.009.641,0,1.283,0,1.924v.237Z" fill="#fff"/>
    <path id="Path_104460" data-name="Path 104460" d="M-40.554,216.363v.241c0,3.776.009,7.553,0,11.33a7.991,7.991,0,0,1-6.171,7.732,7.938,7.938,0,0,1-9.72-6.9c-.032-.31-.047-.623-.048-.935q0-5.605,0-11.21v-.256h2.262v.3q0,5.593,0,11.186A5.644,5.644,0,0,0-49.7,233.5a5.725,5.725,0,0,0,6.733-4.442,7.4,7.4,0,0,0,.121-1.337q.013-5.5.005-10.993v-.367Z" fill="#fff"/>
    <path id="Path_104461" data-name="Path 104461" d="M45.608,218.9l-1.679,1.561c-.345-.24-.677-.475-1.014-.7a6.349,6.349,0,0,0-2.716-1.165,5.571,5.571,0,0,0-4.215.9,2.617,2.617,0,0,0-1.119,1.73,1.84,1.84,0,0,0,.415,1.478A4.1,4.1,0,0,0,36.8,223.8a16.114,16.114,0,0,0,2.74.873,30.993,30.993,0,0,1,3.395,1.029,5.07,5.07,0,0,1,3.269,3.726,4.354,4.354,0,0,1-1.222,4.149,7.31,7.31,0,0,1-4.835,2.258,10.781,10.781,0,0,1-7.656-2.554c-.226-.176-.445-.364-.692-.567l1.627-1.495c.357.253.7.511,1.06.75a9.224,9.224,0,0,0,3.883,1.578,5.788,5.788,0,0,0,4.76-1.3,3.128,3.128,0,0,0,.472-.51,2.157,2.157,0,0,0,.036-2.616,4.99,4.99,0,0,0-2.435-1.76,19.153,19.153,0,0,0-2.872-.767,10.666,10.666,0,0,1-3.635-1.459,4.257,4.257,0,0,1-.926-6.695,6.619,6.619,0,0,1,4.23-2,9.284,9.284,0,0,1,6.843,1.894C45.086,218.515,45.331,218.694,45.608,218.9Z" fill="#fff"/>
    <path id="Path_104462" data-name="Path 104462" d="M-64.889,254.661l-1.625,1.516c-.309-.214-.609-.424-.911-.632a6.591,6.591,0,0,0-2.463-1.161,5.824,5.824,0,0,0-4.357.668,3.308,3.308,0,0,0-.677.573,2.14,2.14,0,0,0,.461,3.494,9.811,9.811,0,0,0,3.189,1.235,21.8,21.8,0,0,1,3.774,1.119,5.123,5.123,0,0,1,3.27,3.9A4.313,4.313,0,0,1-65.5,269.33a7.5,7.5,0,0,1-5.735,2.265,10.723,10.723,0,0,1-6.045-2.088c-.451-.317-.877-.669-1.347-1.03l1.611-1.48c.258.188.5.377.76.554a9.632,9.632,0,0,0,4.141,1.769,5.93,5.93,0,0,0,3.74-.576,4.524,4.524,0,0,0,1.519-1.2,2.193,2.193,0,0,0,.09-2.645,4.461,4.461,0,0,0-1.883-1.559,16.029,16.029,0,0,0-3.355-1,10.285,10.285,0,0,1-4.222-1.826,4.2,4.2,0,0,1-.559-6.177,6.181,6.181,0,0,1,3.541-1.985,8.97,8.97,0,0,1,7.148,1.436c.338.23.673.464,1.008.7A2.343,2.343,0,0,1-64.889,254.661Z" fill="#fff"/>
    <path id="Path_104463" data-name="Path 104463" d="M17.83,231.933l1.645,1.644c-.347.246-.685.512-1.047.737A10.138,10.138,0,0,1,6.7,233.7a9.364,9.364,0,0,1-3.6-6.177,9.723,9.723,0,0,1,7.464-10.871A9.928,9.928,0,0,1,19.37,218.6c.025.02.048.042.071.064,0,.005.008.013,0,0l-1.588,1.585c-.57-.317-1.119-.687-1.716-.945a7.756,7.756,0,0,0-10.6,4.92,7.368,7.368,0,0,0,3.25,8.143,7.8,7.8,0,0,0,4.745,1.194,7.6,7.6,0,0,0,4.156-1.531C17.731,232,17.777,231.97,17.83,231.933Z" fill="#fff"/>
    <path id="Path_104464" data-name="Path 104464" d="M37.981,252.12h2.713v-.454c0-1.933,0-3.866-.006-5.8,0-.24.058-.315.307-.307.577.021,1.155.018,1.733,0,.217,0,.268.066.267.272-.006,2.005,0,4.01-.008,6.015,0,.235.075.277.285.274.722-.011,1.444,0,2.166,0H45.7c0,.506,0,.984,0,1.463,0,.231.074.559-.046.667-.137.124-.45.062-.687.064q-.879.009-1.757,0c-.162,0-.222.041-.222.217Q43,261.147,43,267.764a3.968,3.968,0,0,0,.092.834,1.148,1.148,0,0,0,1.3,1.021c.413-.014.824-.086,1.27-.136.031.554.067,1.127.091,1.7,0,.048-.073.126-.128.143a4.6,4.6,0,0,1-3.271-.015,2.562,2.562,0,0,1-1.527-2.1,10.322,10.322,0,0,1-.123-1.58q-.014-6.485,0-12.968c0-.343,0-.343-.341-.343H37.981Z" fill="#fff"/>
    <path id="Path_104465" data-name="Path 104465" d="M-1.577,235.87H-3.851v-19.5h2.274Z" fill="#fff"/>
    <path id="Path_104466" data-name="Path 104466" d="M24.908,216.359h2.248v19.509H24.908Z" fill="#fff"/>
    <path id="Path_104467" data-name="Path 104467" d="M-12.846,271.6v-.35q0-9.381,0-18.761c0-.46.006-.366.38-.369.545,0,1.09.006,1.636,0,.181,0,.251.058.23.235a1.152,1.152,0,0,0,0,.144v18.712c0,.393,0,.393-.385.393C-11.593,271.6-12.2,271.6-12.846,271.6Z" fill="#fff"/>
    <path id="Path_104468" data-name="Path 104468" d="M-10.281,247.845a1.447,1.447,0,0,1-1.453,1.45,1.457,1.457,0,0,1-1.428-1.455A1.447,1.447,0,0,1-11.7,246.4,1.44,1.44,0,0,1-10.281,247.845Z" fill="#fff"/>
  </g>
</svg>
