<svg xmlns="http://www.w3.org/2000/svg" width="182.34" height="44.436" viewBox="0 0 182.34 44.436">
  <g id="Group_177582" data-name="Group 177582" transform="translate(-628.83 -925.892)">
    <g id="Group_177589" data-name="Group 177589" transform="translate(0 -3)">
      <g id="Component_672_1" data-name="Component 672 – 1" transform="translate(628.83 928.892)">
        <g id="Layer_2" data-name="Layer 2">
          <g id="Surfaces">
            <g id="UI_UX_Surface" data-name="UI UX Surface">
              <g id="Outline_no_shadow" data-name="Outline no shadow">
                <g id="Group_175492" data-name="Group 175492">
                  <path id="Path_104683" data-name="Path 104683" d="M9.808,0h25.96a9.808,9.808,0,0,1,9.808,9.808v24.82a9.808,9.808,0,0,1-9.808,9.808H9.808A9.808,9.808,0,0,1,0,34.628V9.808A9.808,9.808,0,0,1,9.808,0Z" fill="#470137"/>
                </g>
              </g>
            </g>
          </g>
          <g id="Outlined_Mnemonics_Logos" data-name="Outlined Mnemonics Logos" transform="translate(6.635 9.727)">
            <g id="Xd">
              <g id="Group_175493" data-name="Group 175493" transform="translate(0 1.648)">
                <path id="Path_104674" data-name="Path 104674" d="M-265.476,14.134l-5.687,9.386,6.084,9.968a.312.312,0,0,1,.03.229c-.021.072-.091.026-.214.047H-269.6c-.305,0-.52-.011-.642-.215q-.612-1.192-1.223-2.37t-1.3-2.4q-.689-1.223-1.361-2.477h-.03q-.612,1.223-1.269,2.446t-1.3,2.43q-.642,1.208-1.314,2.4c-.082.184-.225.2-.429.2h-4.188c-.081,0-.127.032-.137-.049a.306.306,0,0,1,.046-.214l5.9-9.692L-282.6,14.1c-.062-.081-.072-.147-.03-.2a.221.221,0,0,1,.183-.076h4.31a.632.632,0,0,1,.276.045.56.56,0,0,1,.183.169q.551,1.223,1.224,2.446t1.36,2.415q.688,1.192,1.269,2.415h.03q.611-1.253,1.238-2.446t1.284-2.4q.658-1.207,1.269-2.4a.477.477,0,0,1,.123-.2.44.44,0,0,1,.244-.045h4a.175.175,0,0,1,.212.128.174.174,0,0,1-.059.178Z" transform="translate(282.799 -13.823)" fill="#ff61f6"/>
              </g>
              <g id="Group_175494" data-name="Group 175494" transform="translate(18.117)">
                <path id="Path_104675" data-name="Path 104675" d="M-252.8,33.805a9.47,9.47,0,0,1-4.082-.856,6.487,6.487,0,0,1-2.859-2.584,8.257,8.257,0,0,1-1.04-4.326,7.979,7.979,0,0,1,1.04-4,7.63,7.63,0,0,1,3.027-2.935,9.768,9.768,0,0,1,4.8-1.1c.1,0,.235.006.4.016s.356.026.581.046V12.037c0-.142.061-.214.184-.214h3.852a.162.162,0,0,1,.184.138.14.14,0,0,1,0,.045V30.075q0,.521.046,1.131t.077,1.1a.317.317,0,0,1-.183.306,15.141,15.141,0,0,1-3.088.917A16.481,16.481,0,0,1-252.8,33.805Zm1.865-3.791V21.668a3.005,3.005,0,0,0-.5-.092q-.312-.031-.627-.03a4.723,4.723,0,0,0-2.14.49,4.174,4.174,0,0,0-1.6,1.406,4.2,4.2,0,0,0-.627,2.415,5.393,5.393,0,0,0,.321,1.957,3.735,3.735,0,0,0,.857,1.345,3.253,3.253,0,0,0,1.284.764,5.016,5.016,0,0,0,1.575.245q.427,0,.795-.031A3.232,3.232,0,0,0-250.937,30.014Z" transform="translate(260.782 -11.821)" fill="#ff61f6"/>
              </g>
            </g>
          </g>
        </g>
        <g id="Group_175495" data-name="Group 175495" transform="translate(57.971 9.852)">
          <path id="Path_104676" data-name="Path 104676" d="M-214.834,29.164l-1.461,4.507a.33.33,0,0,1-.336.243h-3.531c-.214,0-.275-.122-.244-.3l6.09-17.57a5.521,5.521,0,0,0,.305-1.856.2.2,0,0,1,.182-.214h4.871c.152,0,.213.031.244.184l6.913,19.487c.06.151.03.273-.153.273h-3.958a.307.307,0,0,1-.335-.212l-1.553-4.537Zm5.907-3.807c-.61-2.009-1.827-5.694-2.405-7.855h-.03c-.487,2.04-1.583,5.389-2.376,7.855Z" transform="translate(220.414 -12.326)" fill="#fff"/>
          <path id="Path_104677" data-name="Path 104677" d="M-197.549,26.13c0-4.354,3.258-8.007,8.829-8.007.244,0,.548.03,1,.061v-6a.193.193,0,0,1,.214-.214h3.836c.152,0,.183.062.183.184V30.15a17.169,17.169,0,0,0,.122,2.223c0,.152-.03.213-.213.274a15.3,15.3,0,0,1-6,1.219C-194.078,33.866-197.549,31.307-197.549,26.13Zm9.834-4.323a3.153,3.153,0,0,0-1.127-.151,4.061,4.061,0,0,0-4.354,4.263c0,3.014,1.735,4.323,4.05,4.323a4.308,4.308,0,0,0,1.43-.183Z" transform="translate(216.364 -11.972)" fill="#fff"/>
          <path id="Path_104678" data-name="Path 104678" d="M-162.833,27.242c0,4.78-3.1,7.947-7.49,7.947-5.207,0-7.521-3.928-7.521-7.856,0-4.324,2.893-7.886,7.582-7.886C-165.359,19.447-162.833,23.131-162.833,27.242Zm-10.717.03c0,2.679,1.247,4.384,3.288,4.384,1.765,0,3.106-1.522,3.106-4.323,0-2.376-.973-4.354-3.288-4.354C-172.211,22.98-173.55,24.563-173.55,27.273Z" transform="translate(212.874 -13.296)" fill="#fff"/>
          <path id="Path_104679" data-name="Path 104679" d="M-153.011,11.972c.244,0,.3.031.3.244v6.242a9.8,9.8,0,0,1,2.557-.335,6.969,6.969,0,0,1,7.308,7.247c0,5.694-4.507,8.5-9.135,8.5a15.947,15.947,0,0,1-4.78-.7.358.358,0,0,1-.183-.3V12.186c0-.152.06-.214.213-.214Zm2.1,9.744a6.19,6.19,0,0,0-1.8.244V30.21a4.684,4.684,0,0,0,1.127.123,4.191,4.191,0,0,0,4.415-4.568C-147.165,22.994-148.778,21.716-150.91,21.716Z" transform="translate(209.171 -11.972)" fill="#fff"/>
          <path id="Path_104680" data-name="Path 104680" d="M-133.842,28.43c.151,1.735,1.37,3.166,4.355,3.166a9.431,9.431,0,0,0,3.744-.7c.092-.061.184-.03.184.152V33.94c0,.213-.061.3-.214.365a10.216,10.216,0,0,1-4.658.884c-5.724,0-7.734-3.928-7.734-7.7,0-4.2,2.589-8.039,7.369-8.039,4.6,0,6.424,3.562,6.424,6.576a9.784,9.784,0,0,1-.151,2.041.264.264,0,0,1-.244.244,28.269,28.269,0,0,1-3.136.122Zm3.958-2.954a9.926,9.926,0,0,0,1.523-.061V25.2a2.477,2.477,0,0,0-2.589-2.406,2.884,2.884,0,0,0-2.923,2.679Z" transform="translate(205.846 -13.296)" fill="#fff"/>
          <path id="Path_104681" data-name="Path 104681" d="M-101.553,23.623l6.028,9.957a.206.206,0,0,1-.151.334H-100a.506.506,0,0,1-.518-.273c-1.34-2.376-2.68-4.751-4.049-7.247h-.03c-1.219,2.436-2.558,4.9-3.836,7.278a.41.41,0,0,1-.427.243h-4.11c-.214,0-.214-.183-.122-.3l5.846-9.684-5.724-9.652a.183.183,0,0,1,.152-.305h4.293c.213,0,.3.031.4.244,1.218,2.4,2.65,4.811,3.9,7.217h.03c1.188-2.437,2.528-4.782,3.775-7.217A.4.4,0,0,1-100,13.97h3.928c.213,0,.244.153.122.336Z" transform="translate(201.416 -12.326)" fill="#fff"/>
          <path id="Path_104682" data-name="Path 104682" d="M-89.922,14.231c0-.151.03-.212.214-.243.913-.031,3.227-.092,5.936-.092,7.278,0,10.84,4.081,10.84,9.714,0,7.278-5.6,10.352-10.778,10.352-2.01,0-5.055,0-6.029-.061-.122,0-.183-.091-.183-.3Zm4.232,16.017c.609.03,1.1.062,1.8.062,3.989,0,6.607-2.406,6.607-6.639,0-4.08-2.618-6.089-6.516-6.089-.73,0-1.218,0-1.888.03Z" transform="translate(197.301 -12.313)" fill="#fff"/>
        </g>
      </g>
    </g>
  </g>
</svg>
