<svg xmlns="http://www.w3.org/2000/svg" width="102.814" height="40.162" viewBox="0 0 102.814 40.162">
  <g id="behance-3" transform="translate(228.608 6.185)">
    <path id="Path_105527" data-name="Path 105527" d="M-228.608-6.185h102.814V33.976H-228.608Z" fill="#005cff"/>
    <g id="Group_292689" data-name="Group 292689" transform="translate(-216.464 6.478)">
      <path id="Path_105528" data-name="Path 105528" d="M-212.682,10.422h3.319V24.9h-3.319Z" transform="translate(212.682 -10.422)" fill="#fff"/>
      <path id="Path_105529" data-name="Path 105529" d="M-208.491,10.422h4.337v2.573h-4.337Zm0,11.9h4.337V24.9h-4.337Zm0-6.1h4.337v2.231h-4.337Z" transform="translate(211.687 -10.422)" fill="#fff"/>
      <path id="Path_105530" data-name="Path 105530" d="M-203.478,24.9s4.6.145,4.6-4.273c0,0,.2-3.595-2.711-3.595a2.512,2.512,0,0,0,2.209-2.754c0-2.59-1.807-3.855-4.1-3.855s-2.169,1.286-2.169,1.286l1.626,1.286h.542s1.024,0,1.024,1.506-.6,1.724-1.285,1.724-.944,1.116-.944,1.116l1.2,1.116s1.526-.02,1.526,1.988a1.7,1.7,0,0,1-2.008,1.88c-.4,0-.281,1.032-.281,1.032l.763,1.543ZM-192.747,14.1c-5.567,0-5.562,5.562-5.562,5.562a5.135,5.135,0,0,0,5.562,5.534s4.953.283,4.953-3.849h-2.548s.085,1.556-2.321,1.556a2.355,2.355,0,0,1-2.548-2.519h7.5S-186.887,14.1-192.747,14.1Zm-2.491,4.352a2.588,2.588,0,0,1,2.548-2.231,2.154,2.154,0,0,1,2.207,2.231Zm57.674-4.352c-5.567,0-5.562,5.562-5.562,5.562a5.136,5.136,0,0,0,5.563,5.534s4.953.283,4.953-3.849h-2.548s.085,1.556-2.321,1.556a2.355,2.355,0,0,1-2.548-2.519h7.5S-131.706,14.1-137.564,14.1Zm-2.491,4.352a2.588,2.588,0,0,1,2.548-2.231,2.155,2.155,0,0,1,2.208,2.231Zm-55.805-7.182h5.973v1.783h-5.973Zm9.285-.853h2.943V24.891h-2.943Zm9.708,7.108h-2.887v7.361h2.887Z" transform="translate(211.011 -10.422)" fill="#fff"/>
      <path id="Path_105531" data-name="Path 105531" d="M-173,18.677s0-1.1-1.832-1.1c-1.7,0-2.009,1.331-2.009,2.6a25.926,25.926,0,0,1-.2-2.8,3.814,3.814,0,0,1,3.425-2.123,3.348,3.348,0,0,1,3.538,3.569c0,1.768-1,.914-1,.914L-173,19.279v-.6h0Zm15.1-3.27h2.943V26.038h-2.943Zm9.709,3.27h-2.887v7.361h2.887Z" transform="translate(204.217 -11.569)" fill="#fff"/>
      <path id="Path_105532" data-name="Path 105532" d="M-148.6,18.677s0-1.1-1.832-1.1c-1.7,0-2.009,1.331-2.009,2.6a25.928,25.928,0,0,1-.2-2.8,3.814,3.814,0,0,1,3.425-2.123,3.348,3.348,0,0,1,3.538,3.569c0,1.768-1,.914-1,.914l-1.923-.456v-.6Zm-7.77,7.361s-.548-.281-.548-2v-6.2s.348-2.586-4.311-2.586-4.957,2.335-4.982,3.73h3.114a1.711,1.711,0,0,1,1.844-1.845,1.5,1.5,0,0,1,1.669,1.54s0,1.1-1.52,1.2-5.381.075-5.381,3.214a3.21,3.21,0,0,0,3.45,3.313s2.429.05,3.45-1.445v1.078h3.213Zm-3.238-3.27a2.132,2.132,0,0,1-2.367,1.594s-1.744.075-1.744-1.42c0,0-.149-1.146,2.292-1.52.971-.075,1.42-.142,1.819-.594Zm25.324-.827h-3.047s.075,2.144-1.919,2.144-2.52-2.137-2.52-3.362.413-3.3,2.557-3.3a1.826,1.826,0,0,1,2.069,1.843h2.671s.188-4.018-4.7-4.018-5.416,3.96-5.416,5.55.827,5.6,5.341,5.6,4.965-3.636,4.965-4.464Z" transform="translate(201.712 -11.569)" fill="#fff"/>
    </g>
  </g>
</svg>
